<?xml version="1.0" encoding="utf-8"?>
<!-- Generator: Adobe Illustrator 25.4.1, SVG Export Plug-In . SVG Version: 6.00 Build 0)  -->
<svg fill="#FDF7FF" version="1.1" id="Capa_1" xmlns="http://www.w3.org/2000/svg" xmlns:xlink="http://www.w3.org/1999/xlink" x="0px" y="0px"
	 viewBox="0 0 1920 1080" style="enable-background:new 0 0 1920 1080;" xml:space="preserve">
<g>
	<path d="M564.32,775.26c0-18.53,0-37.06,0-55.59c0.85-2.54,2.2-5.03,2.49-7.63c5.84-52.38,23.8-100.43,52.94-144.19
		c51.41-77.19,75.9-161.82,73.81-254.49c-0.47-20.83,2.68-41.75,4.39-65.87c18.63,9.55,33.59,17.09,48.43,24.85
		c29.85,15.61,37.58,13.51,56.29-14.28c8.73-12.97,16.9-33.85,27.96-35.73c12.52-2.13,28.25,12.6,42.11,20.79
		c21.63,12.79,30.56,10.8,43.85-11.27c19.1-31.72,38.08-63.5,57.22-95.2c2.94-4.87,6.42-9.41,10.42-15.23
		c8.16,6.09,14.61,10.98,21.13,15.77c18.17,13.35,31.24,9.2,38.08-12.43c5.9-18.65,11.24-37.48,16.94-56.2
		c5.84-19.18,6.11-19.27,24.57-12.04c108.72,42.52,176.07,141.21,174.66,257.4c-0.64,52.79,4.59,104.88,24.37,153.82
		c14.38,35.57,32.57,69.93,52.06,103.07c57.17,97.22,74.11,197.54,22.77,301.7c-35.23,71.48-98.57,111.76-171.31,138.45
		c-83.47,30.62-170.25,37.32-258.24,32.23c-74.8-4.32-147.14-19.28-214.04-54.55c-72.46-38.2-123.74-93.89-143.23-175.18
		C568.97,800.86,566.86,788.01,564.32,775.26z M970.69,962.11c66.93-0.19,125.07-5.32,181.05-24.18
		c85.94-28.95,147.63-81.66,164.94-174.74c7.18-38.61,6.74-77.21-14.9-112.38c-25.04-40.68-68.19-51.15-108.62-25.54
		c-12.3,7.79-24.42,17.16-33.68,28.25c-82.51,98.91-276.78,99.35-359.34-0.16c-4.5-5.42-9.85-10.23-15.24-14.82
		c-57-48.59-121.15-28.72-140.81,43.65c-1.85,6.79-3,13.85-3.69,20.86c-9.31,94.5,38.3,176.19,127.88,219.03
		C834.89,953.94,906.28,961.3,970.69,962.11z M1127.67,609.06c63.99-0.05,110.49-38.75,122.43-93.42
		c6.84-31.32-3.68-58.78-13.73-87.12c-3.53-9.95-4.64-21.99-2.8-32.36c5.4-30.42-17.53-57.7-48.48-54.9
		c-3.77,0.34-7.16,4.81-10.73,7.37c2.84,2.8,5.27,6.41,8.65,8.18c3.2,1.68,7.47,1.23,11.18,2.09c21.77,5.07,29.98,22.5,19.67,42.24
		c-8.13,15.55-21.8,22.13-38.89,22.64c-30.14,0.9-57.82,10.09-83.85,24.81c-15.18,8.58-30.13,17.59-45.54,25.74
		c-15.61,8.26-30.87,10.94-44.27-5.03c-2.02-2.41-7.44-1.99-11.28-2.87c-0.25,4.43-1.97,9.52-0.36,13.13
		c1.84,4.13,6.07,8.54,10.26,10.06c11.92,4.31,15.63,14.01,19.31,24.42c3.25,9.21,6.77,18.38,11,27.18
		C1051.4,585.2,1087.47,606.45,1127.67,609.06z M825.62,609.04c38.54-2.12,73.87-22.38,95.51-63.65
		c11.8-22.51,15.24-49.96,40.8-64.06c2.63-1.45,1.83-9.08,2.63-13.84c-4.59,0.95-10.85,0.33-13.48,3.12
		c-9.5,10.07-20.42,12.79-32.71,7.98c-10.09-3.95-19.37-9.89-29.24-14.46c-26.6-12.32-52.92-25.38-80.18-36.05
		c-11.31-4.42-24.76-3.31-37.19-5.03c-20.26-2.79-35.4-17.95-36.4-36.11c-0.91-16.68,7.54-24.51,31.97-29.58
		c1.07-0.22,2.48,0.05,3.18-0.55c3-2.57,5.79-5.37,8.66-8.09c-3.59-2.6-6.99-7.12-10.79-7.49c-29.85-2.85-55.88,24.75-48.31,52.98
		c3.57,13.32,2.16,24.12-3.14,35.81c-3.59,7.91-6.4,16.19-9.3,24.39C680.87,530.04,737.41,609.3,825.62,609.04z M976.86,667.17
		c3.43,2.62,5.56,4.23,7.66,5.86c19.93,15.44,43.31,14.49,58.67-2.39c15.44-16.97,14.4-40.34-3.04-58.54
		c-10.92-11.4-21.97-22.73-33.63-33.37c-17.1-15.6-39.6-16.41-56.39-1.45c-13.8,12.3-27.17,25.29-39.28,39.22
		c-20.05,23.06-8.55,58.6,20.84,66.31C949.42,687.47,963.69,680.54,976.86,667.17z M970.34,1018.9c0.25-1.52,0.49-3.05,0.74-4.57
		c8.2,0,16.61,1.21,24.55-0.22c27.31-4.91,54.53-10.42,81.56-16.65c3.51-0.81,5.73-7.17,8.54-10.96c-4.2-1.39-8.33-3.17-12.64-3.99
		c-1.84-0.35-4.03,1.42-6.12,2.03c-64.08,18.59-128.06,19.09-192.16-0.32c-5.01-1.52-11.41,1.55-17.17,2.48
		c3.97,4.25,7.32,11.27,12,12.3C903.05,1006.31,936.74,1012.41,970.34,1018.9z M984.29,334.34c33.91-5.95,67.2-11.4,100.26-18.03
		c4.62-0.93,8.07-7.64,12.07-11.67c-5.58-1.11-11.71-4.31-16.65-3.01c-64.93,17.08-129.65,16.27-194.57,0.05
		c-4.97-1.24-11.04,1.89-16.61,2.99c4,4.04,7.47,10.79,12.08,11.69C915.04,322.97,949.45,328.43,984.29,334.34z"/>
	<path d="M1046.72,56.76c-7.33,24.55-14.23,47.7-21.98,73.65c-8.93-6.28-15.87-10.98-22.62-15.95
		c-17.57-12.94-27.06-11.27-38.49,7.58c-20.31,33.51-40.74,66.96-60.34,100.89c-6.42,11.11-12.61,13.42-23.18,5.8
		c-9.27-6.68-19.22-12.42-28.98-18.41c-19.96-12.25-30.05-9.87-43.32,10.15c-7.82,11.8-15.8,23.51-23.19,35.58
		c-6.01,9.8-13.21,11.84-23.26,6.1c-9.94-5.67-19.83-11.74-30.45-15.81c-14.56-5.59-18.02-13.74-13.44-28.77
		c7.12-23.3,18.94-42.48,38.92-56.72c4.15-2.96,8.66-6.97,10.39-11.49c18.57-48.41,57.75-76.09,109.69-78.25
		c8.87-0.37,18.11-4.37,26.22-8.55c31.63-16.33,63.53-19.94,97.58-7.32c8.86,3.28,19.92,0.61,29.96,0.79
		C1035.04,56.09,1039.84,56.44,1046.72,56.76z M894.33,116.06c1.01-4.01,1.54-6.02,2.03-8.03c1.76-7.31,15.8-13.34,3.92-21.07
		c-2.15-1.4-13,10.32-19.66,16.18c-1.09,0.96-0.88,3.35-1.94,4.41c-5.24,5.27-9.84,12.2-16.24,15.08
		c-19.59,8.8-36.2,20.57-45.67,40.13c-2.09,4.31-0.14,10.57-0.05,15.93c4.51-2.59,10.92-4.06,13.22-7.95
		c14.74-24.97,36.89-36.19,65.13-36.98c6.53-0.18,13.22,1.34,19.59,0.42c4.55-0.65,8.69-4.07,13.02-6.25
		c-4.02-3.27-7.57-7.91-12.16-9.46C909.55,116.44,902.75,116.87,894.33,116.06z"/>
	<path d="M674.07,377.85c-1.73,10.38-3.3,19.87-4.99,30.01c-31.25-1.54-55.16,8.68-65.19,39.02c-9.59,28.99,2.84,50.73,27.94,68.03
		c-5.05,9.35-9.81,18.17-14.49,26.82c-38.27-14.42-58.84-62.09-46.1-104.15C584.43,394.1,628.46,367.72,674.07,377.85z"/>
	<path d="M1280.13,377.36c40.96-8.95,83.76,16.19,97.79,56.63c14.41,41.53-3.18,87.58-42.01,106.83
		c-4.98-8.62-10.01-17.33-15.3-26.5c4.91-4.45,9.1-7.82,12.79-11.66c14.86-15.48,19.64-34.04,13.7-54.33
		c-5.92-20.24-19.89-33.56-40.66-38.69C1281.64,403.53,1281.58,403.78,1280.13,377.36z"/>
	<path d="M666.18,426.39c-8.34,24.19-16.54,47.98-24.8,71.92c-20.37-8.25-28.6-26.04-23.09-45.68
		C623.94,432.51,641.87,421.87,666.18,426.39z"/>
	<path d="M1287.04,426.03c22.75-2.85,38.59,6.81,44.5,24.89c6.1,18.65-0.27,35.4-19.77,47.14
		C1303.46,473.87,1295.35,450.24,1287.04,426.03z"/>
	<path d="M1023.84,820.89c-13.71,15.98-26.76,30.39-38.81,45.59c-4.98,6.29-8.91,13.94-11.23,21.6c-1.4,4.64,1.2,10.49,2,15.79
		c4.23-3.04,10.49-5.17,12.34-9.27c10.57-23.48,25.99-42.84,46.95-57.62c13.09-9.23,25.35-16.41,44.37-13.67
		c15.22,2.19,32.07-8.12,48.42-11.97c8.55-2.01,18.06-4.34,26.28-2.57c31.65,6.83,66.38,31.22,87.95,60.75
		c-90.36,74.28-197.57,76.77-306.93,75.38c0-14.19-0.42-26.49,0.09-38.76c1.14-27.48-8.1-37.68-36.04-38.65
		c-7.63-0.27-15.27-0.04-23.06-0.04c-4.71-8.83-9.21-17.25-14.62-27.38C912.89,812.87,966.57,806.34,1023.84,820.89z"/>
	<path d="M1108.96,715.62c7.01,20.87,13.55,40.34,20.05,59.82c0.34,1.02,0.49,2.16,0.46,3.23c-0.85,26.71-25.29,20.77-39.87,27.88
		c-11.45,5.58-20.04-0.28-24.07-12.06c-6.33-18.52-12.46-37.12-19.5-58.14C1066.92,729.46,1087.2,722.78,1108.96,715.62z"/>
	<path d="M772.42,907c7.52-19.46,14.07-36.07,20.34-52.78c4.47-11.9,12.75-15.89,24.51-11.77c45.42,15.87,46.39,14.95,29.49,56.81
		c-3.83,9.49-7.53,19.04-12.17,30.8C814,922.42,794.05,915.02,772.42,907z"/>
	<path d="M816.42,702.78c-5.72,7.86-14.42,20.26-23.59,32.29c-7.01,9.2-15.86,10.61-25.76,4.37c-0.46-0.29-0.9-0.6-1.34-0.93
		c-34.32-25.26-42.22-24.53-11.84-63.14c5.99-7.62,11.51-15.61,17.86-24.27C786.44,668.1,800.47,684.32,816.42,702.78z"/>
	<path d="M1121.06,707.94c14.6-12.43,28.14-23.95,43.34-36.89c13.64,16.8,26.55,32.68,39.38,48.61c0.99,1.23,1.85,2.88,1.99,4.41
		c1.77,19.46-16.17,24.02-26.8,33.44c-7.78,6.89-16.09,2-22.27-5.79C1145.27,737.34,1133.51,723.21,1121.06,707.94z"/>
	<path d="M872.62,938.77c0-15.22-1.37-28.45,0.66-41.13c0.84-5.23,8.28-11.21,14.03-13.33c5.6-2.06,13.47-1.06,19.23,1.3
		c4.84,1.99,11.21,7.71,11.43,12.05c0.72,13.95-1.1,28.03-2.03,43.6C900.54,940.38,886.62,939.58,872.62,938.77z"/>
	<path d="M1123.56,488.51c11.62,0.35,20.4,9.89,19.87,21.58c-0.53,11.66-10.22,20.65-21.81,19.43
		c-12.05-1.27-18.76-8.37-19.06-20.53C1102.29,497.44,1112.1,488.17,1123.56,488.51z"/>
	<path d="M829.05,529.84c-12.72-2.17-20.04-9.07-19.11-22.14c0.93-13.06,9.23-19.72,21.81-18.93c12.8,0.8,19.61,8.87,18.89,21.84
		C849.9,523.96,841.32,529.21,829.05,529.84z"/>
</g>
</svg>
