<?xml version="1.0" encoding="utf-8"?>
<!-- Generator: Adobe Illustrator 25.4.1, SVG Export Plug-In . SVG Version: 6.00 Build 0)  -->
<svg fill="#FDF7FF" version="1.1" id="Capa_1" xmlns="http://www.w3.org/2000/svg" xmlns:xlink="http://www.w3.org/1999/xlink" x="0px" y="0px"
	 viewBox="0 0 1920 1080" style="enable-background:new 0 0 1920 1080;" xml:space="preserve">
<g>
	<path d="M107.15,309.69c3.93-2.07,8.19-6.36,11.75-5.84c28.41,4.11,56.97,7.91,84.88,14.39c13.96,3.24,27.32,10.82,39.79,18.35
		c23.38,14.13,32.79,36.26,30.51,62.9c-2.57,29.96-6.47,59.81-9.42,89.74c-2.09,21.21-14.15,34.86-32.24,44.29
		c-13.73,7.16-14.33,9.15-8.1,22.98c14.7,32.62,27.8,66.06,44.31,97.74c13.83,26.55,31.63,51.03,47.48,76.54
		c2.05,3.31,3,7.3,5.04,12.45c-7.21,0.93-12.84,2.1-18.51,2.29c-14.07,0.48-28.18,0.07-42.23,0.85
		c-15.07,0.84-16.99-0.18-21.36-14.17c-12.31-39.36-24.25-78.85-37.4-117.92c-6.3-18.7-14.92-36.63-22.73-54.81
		c-1.4-3.25-3.98-6-6.66-9.92c-1.28,2.51-2.43,3.68-2.37,4.79c2.3,42.68,4.55,85.37,7.22,128.03c0.65,10.39-2.82,14.55-13.55,13.57
		c-4.03-0.37-8.04-0.95-15.25-1.81c2.13,8.47,2.39,16.22,5.98,21.87c3.68,5.81,8.69,9.97,2.59,16.67
		c-6.34,6.96-11.54,2.34-14.45-0.25c-8.21,1.24-14.62,3.74-20.27,2.57c-4.34-0.9-9.03-5.8-11.05-10.1c-1.21-2.56,1.64-8,4.05-11.08
		c5.01-6.38,15.24-9.14,13.35-20.1c-18.32-5.77-18.38-7.51-16.86-30.27c3.78-56.66,8.6-113.36,9.2-170.08
		c0.49-46.1-4.22-92.27-7.32-138.37c-0.93-13.82-4.19-27.48-6.38-41.21C107.15,312.43,107.15,311.06,107.15,309.69z M171.19,510.96
		c7.79-2.6,14.63-4.71,21.33-7.15c31.24-11.4,39.89-26.04,35.38-58.71c-2.1-15.21-4.02-30.46-5.22-45.76
		c-1.72-21.95-5.52-26.54-27.27-29.38c-4.74-0.62-9.6-0.21-14.38-0.59c-7.59-0.6-10.32,2.96-10.38,10.26
		c-0.32,38.62-0.95,77.24-1.27,115.86C169.35,500.47,170.52,505.46,171.19,510.96z"/>
	<path d="M1176.07,774.63c14.13-16.31,12.7-32.6,9.35-49.59c-18.07-91.71-35.85-183.48-53.71-275.24
		c-1.42-7.32-2.72-14.66-4.07-21.99c-1.2,0.01-2.41,0.03-3.61,0.04c-0.71,48.62-2.36,97.25-1.86,145.86
		c0.5,48.61,3.14,97.21,4.88,146.95c-9.65,0-19.44-0.05-29.22,0.02c-5.5,0.04-11.02-0.02-16.48,0.47
		c-15.74,1.41-15.68,1.49-19.52-14.36c-18-74.26-36.08-148.49-61.61-220.66c-0.79-2.22-1.62-4.43-4.4-6.89
		c-1.01,4.6-3,9.22-2.88,13.79c1.33,49.99,2.53,99.99,4.76,149.95c1.19,26.6,4.32,53.11,6.59,79.66c0.56,6.52-1.64,10.78-8.92,10.76
		c-14.44-0.03-28.88,0.18-43.3-0.31c-7.87-0.26-11.69-5.26-11.08-13.07c3.33-42.98,7.58-85.92,9.89-128.95
		c1.73-32.11,1.91-64.38,1.13-96.53c-0.89-36.96-3.61-73.87-5.53-110.8c-0.05-1.03-0.03-2.06-0.14-3.08
		c-2.41-21.88-1.66-22.57,20.29-21.46c8.56,0.43,17.16,0.24,25.75,0.23c6.74-0.01,12.5,1.56,13.99,9.16
		c13.52,68.51,40.44,133.01,59.83,199.77c4.53,15.59,8.72,31.27,14.84,47.71c1.09-4.56,3.31-9.18,3.09-13.67
		c-3.15-62.23-6.53-124.46-10.14-186.66c-0.47-8.13-2.4-16.19-3.85-24.25c-2.36-13.07,0.13-16.17,13.24-16.14
		c10.96,0.03,21.92,0.01,32.68,0.01c0-6.04,0-11.39,0-17.61c2.59-0.33,5.18-0.92,7.77-0.96c14.42-0.24,28.86-0.13,43.27-0.59
		c8.36-0.26,12.26,3.4,11.94,11.51c-2.84,72.25,7.28,143.14,22.14,213.57c4.86,23.03,9.05,46.21,13.58,69.31
		c0.38,1.93,1,3.81,2.25,8.51c2.52-5.32,4.79-8.23,5.29-11.43c9.26-58.67,18.85-117.31,27.24-176.11
		c6.18-43.3,10.85-86.82,15.93-130.27c1.03-8.78,5.72-12.96,13.78-15.6c11.67-3.82,22.87-9.05,34.53-12.88
		c4.2-1.38,9.16-0.43,13.77-0.55c-0.11,4.31,0.49,8.79-0.49,12.9c-1.95,8.22-4.77,16.23-8.17,27.4c12.91,0.7,24.72,2.77,36.22,1.66
		c22.04-2.12,23.03-2.55,20.39,19.18c-9.95,81.88-6.49,164.17-7.83,246.29c-0.5,30.77,1.7,61.58,2.78,92.37
		c0.25,7.21-2.33,12.7-9.91,12.82c-11.63,0.18-23.29-0.8-34.92-1.44c-7.7-0.42-10.44-4.58-10.09-12.26
		c1.92-41.69,4.63-83.38,4.95-125.09c0.5-65.43-0.63-130.87-1.27-196.31c-0.04-4.42-1.81-8.82-5.18-12.97
		c-6.91,36.42-14.1,72.79-20.65,109.27c-7.42,41.32-14.76,82.68-21.22,124.16c-7.25,46.58-13.69,93.29-20,140.01
		c-1.27,9.41-4.6,14.9-14.55,16.61c-14.82,2.55-29.39,6.5-44.2,9.1C1188.59,776.79,1183.37,775.27,1176.07,774.63z"/>
	<path d="M632.14,726.18c1.13-15.22,2.47-27.46,2.89-39.73c2.85-82.46,5.49-164.93,8.27-247.4c0.17-5.11,0.82-10.21,1.49-15.28
		c1.5-11.31-1.52-15.25-12.79-12.86c-10.17,2.15-19.72,7.11-29.73,10.23c-4.87,1.52-10.41,3.04-15.23,2.19
		c-15.81-2.81-31.41-6.74-47.11-10.16c-10.75-2.34-14.29,0.22-13.91,10.98c2.53,71.83,4.89,143.66,8.06,215.46
		c1.14,25.9,4.38,51.71,6.62,77.57c0.72,8.3-3.57,11.94-12.88,11.17c-12.65-1.05-25.29-2.25-37.96-3
		c-12.23-0.72-14.78-3.69-13.51-16.01c1.54-14.94,3.78-29.91,3.96-44.89c0.93-79.79,1.35-159.59,1.86-239.39
		c0.07-11.52-3.21-14.96-14.53-14.79c-47.07,0.71-94.13,1.57-141.2,2.53c-5.46,0.11-10.9,1.53-16.37,1.7
		c-9.7,0.29-13.46-4.41-13.23-13.84c0.39-15.9,0.3-31.82-0.01-47.72c-0.17-8.3,4.13-11.3,11.45-10.58
		c14.32,1.39,28.58,3.36,42.88,4.94c41.91,4.63,83.76,9.88,125.76,13.52c24.88,2.16,49.97,2.07,74.98,2.25
		c6.54,0.05,13.05-3.45,19.68-3.96c9.03-0.7,18.27-1,27.23,0.09c41.87,5.09,82.76-1.5,123.57-9.47c11.08-2.16,22.12-4.49,33.19-6.68
		c8.1-1.6,11.37,2.32,11.7,10c0.9,21.24,0.93,21.52,22.64,23.6c39.07,3.75,78.04,3.96,116.81-3.72
		c11.22-2.22,15.26,1.89,14.76,13.11c-0.57,12.66-1.17,25.31-1.72,37.97c-0.55,12.84-4.16,16-15.88,11.41
		c-24.58-9.64-50.23-12.8-76.26-14.32c-7.83-0.46-12.75,2.81-12.99,10.91c-0.75,25.34-1.23,50.68-1.83,76.02
		c-0.18,7.55,3.39,10.68,10.91,9.3c11.44-2.09,22.85-4.4,34.35-6.12c11.45-1.71,14.1,1.17,13.54,12.75
		c-0.52,10.94-0.83,21.89-0.93,32.84c-0.13,13.84-2.67,15.9-15.87,12.41c-8.92-2.35-17.97-4.26-26.8-6.92
		c-8.59-2.59-11.64,0.98-11.31,8.97c0.65,16.08,1.72,32.15,2.06,48.23c0.35,16.74,0.14,33.5-0.01,50.25
		c-0.11,12.5,2.17,14.49,14.55,11.05c22.39-6.21,44.75-12.54,67.05-19.07c15.2-4.45,19.32-1.64,19.4,14.22
		c0.06,11.65,0.09,23.3-0.14,34.94c-0.21,10.15-3.79,13.14-14,13.2c-38.79,0.24-77.57,0.51-116.35,1.03
		c-7.16,0.1-14.29,1.8-21.45,2.03c-12.32,0.39-13.38-1.7-12.52-13.67c3.48-48.43,8.54-96.87,9.13-145.36
		c0.58-47.51-3.56-95.09-5.63-142.63c-0.37-8.55-6.1-11.86-13.46-12.77c-14.63-1.81-29.32-3.13-43.97-4.78
		c-7.52-0.84-10.61,2.29-10.64,9.85c-0.24,53.09-1.19,106.17-0.9,159.26c0.21,38.34,1.88,76.68,3.19,115.01
		c0.23,6.78,2.71,13.52,2.57,20.24c-0.08,3.57-3.28,9.92-5.55,10.15C671.38,724.31,652.66,725.02,632.14,726.18z"/>
	<path d="M1720.99,681.74c26.59-6.35,50.79-12.12,74.98-17.94c3.65-0.88,7.2-2.17,10.86-2.97c9.98-2.18,13.64,0.15,13.99,10.24
		c0.49,14.02,0.32,28.08,0.07,42.12c-0.15,8.33-5.44,10.68-13.13,10.73c-39.09,0.23-78.18,0.63-117.27,1.24
		c-7.16,0.11-14.28,1.89-21.44,2.17c-12.12,0.47-13.52-1.92-12.68-13.74c3.5-49.44,9.13-98.9,9.2-148.35
		c0.08-56.04-4.21-112.13-8.12-168.09c-1.64-23.45-6.77-26.88,22.79-22.07c34.38,5.59,68.09,2.92,101.56-6.7
		c13.62-3.91,17.13-0.08,16.68,14.35c-0.43,13.68-0.94,27.35-1.44,41.03c-0.27,7.33-4.31,9.51-10.96,7.68
		c-4.6-1.27-9.02-3.44-13.68-4.15c-15.42-2.37-30.88-4.92-46.42-5.78c-3.19-0.18-9.5,6.55-9.72,10.36
		c-1.44,25.28-1.56,50.64-2.24,75.97c-0.26,9.61,5.58,10.56,12.89,9.33c11.46-1.93,22.91-3.99,34.33-6.15
		c9.22-1.74,12.51,2.38,12.11,11.16c-0.58,12.65-0.68,25.32-1.2,37.97c-0.39,9.48-4.12,12.26-13.27,9.97
		c-9.6-2.4-19.1-5.24-28.72-7.56c-9.78-2.35-12.5-0.29-12.16,9.89c0.78,23.26,2.15,46.51,2.91,69.77
		C1721.33,654.79,1720.99,667.39,1720.99,681.74z"/>
	<path d="M457.81,561.26c0,23.86-0.57,47.74,0.21,71.58c0.48,14.67-3.3,27.14-13.91,37.08c-14,13.12-27.86,26.5-42.88,38.38
		c-18.97,15.02-38.17,14.66-57.63,0.41c-24.69-18.09-41.04-43.02-54.86-69.55c-3.24-6.23-2.49-14.64-3.11-22.08
		c-1.92-22.84-3.65-45.69-5.37-68.55c-1.46-19.35,3.46-37.38,12.67-54.14c10.7-19.47,22.15-38.52,33.24-57.78
		c4.85-8.43,11.44-12.86,21.82-12.1c17.46,1.27,34.98,1.67,52.48,2.37c13.43,0.54,22.02,7.83,28.32,19.11
		C443.57,472.44,458.19,514.4,457.81,561.26z M337.42,603.15c-1.87,24.67,8.1,44.92,24.25,55.46c16.13,10.53,34.74,1.26,36.25-17.7
		c2.38-29.95,4.87-59.9,7.9-89.8c2.09-20.59,3.14-40.79-7.36-59.81c-9.58-17.34-29.59-22.15-44.18-9.37
		c-17.8,15.59-26.03,35.27-23.1,59.37C333.89,563.63,335.73,586.07,337.42,603.15z"/>
	<path d="M1454.17,501.98c0,51.71,0.2,103.43-0.2,155.14c-0.06,8.32,2.78,11.76,10.67,12.52c29.65,2.82,59.07,6.37,88.58-2.85
		c22.75-7.11,46.24-11.89,69.42-17.62c7.24-1.79,11.17,0.75,11.1,8.69c-0.16,18.49-0.1,36.98-0.18,55.47
		c-0.03,6.85-3.66,10.51-10.42,9.27c-40.96-7.47-82.18-2.17-123.26-2.57c-29.87-0.29-59.76,0.78-89.64,1.12
		c-12.75,0.14-13.07-0.46-12.3-13.58c2.83-48.47,8.29-96.97,7.72-145.4c-0.82-69.42-6.02-138.8-9.48-208.18
		c-0.32-6.44,0.28-12.29,7.8-13.24c14.62-1.86,29.33-3,44-4.4c6.24-0.6,8.99,1.1,8.76,8.53c-1.63,52.35-2.7,104.72-3.94,157.08
		C1453.24,501.96,1453.71,501.97,1454.17,501.98z"/>
	<path d="M1538.72,590.29c-0.23,0,1.55,0.45,3-0.07c25.08-8.87,50.09-17.95,75.19-26.76c4.61-1.62,10.64-4.39,14.03-2.69
		c2.95,1.48,4.14,8.48,4.31,13.11c0.56,15.39,0.02,30.81,0.47,46.21c0.27,9.23-3.24,12.43-12.67,12.64
		c-37.99,0.84-75.96,2.37-113.93,3.89c-5.06,0.2-10.06,1.84-15.09,2.83c-9.44,1.87-12.88-0.71-12.35-10.42
		c0.96-17.76,1.49-35.61,3.85-53.2c6.28-46.8,4.83-93.32-2.08-139.91c-4.01-27.01-6.91-54.18-10.17-81.29
		c-0.73-6.08,1.28-11.73,8.1-11.93c18.07-0.53,36.17-0.18,52.85-0.18C1535.76,426.74,1537.23,508.17,1538.72,590.29z"/>
</g>
</svg>
